# xmcd CD database file
#
# Track frame offsets:
#	150
#	13064
#	25152
#	37998
#	51447
#	64918
#	74727
#	85606
#	98710
#	114781
#	130374
#
# Disc length: 1895 seconds
#
# Revision: 4
# Processed by: cddbd v1.5.2PL0 Copyright (c) Steve Scherf et al.
# Submitted via: CDex 2.21
#
DISCID=9007650b
DTITLE=Reba McEntire - Reba McEntire
DYEAR=1977
DGENRE=Country
TTITLE0=Glad I Waited Just For You
TTITLE1=One To One
TTITLE2=Angel In Your Arms
TTITLE3=I Don't Want To Be A One Night Stand
TTITLE4=I've Waited All My Life For You
TTITLE5=I Was Glad To Give My Everything To You
TTITLE6=Take Your Love Away
TTITLE7=[There's Nothing Like The Love] Between A Woman And A Man
TTITLE8=Why Can't He Be You
TTITLE9=Invitation To The Blues
TTITLE10=Right Time Of The Night
EXTD=YEAR: 1977
EXTT0=
EXTT1=
EXTT2=
EXTT3=
EXTT4=
EXTT5=
EXTT6=
EXTT7=
EXTT8=
EXTT9=
EXTT10=
PLAYORDER=
